<svg width="78" height="88" viewBox="0 0 78 88" fill="none" xmlns="http://www.w3.org/2000/svg">
<path fill-rule="evenodd" clip-rule="evenodd" d="M0 62.8615V22.6489C0 21.939 0.383089 21.299 0.979858 20.9569L35.8893 0.830344C37.8121 -0.276781 40.188 -0.276781 42.1145 0.830344L77.0201 20.9569C77.6169 21.299 78 21.939 78 22.6489V62.8615C78 65.1051 76.8029 67.1795 74.8543 68.3013L42.1439 87.1586C40.199 88.2805 37.801 88.2805 35.8561 87.1586C35.8561 87.1586 19.4971 77.7276 19.4934 77.7239L3.14571 68.3004C1.19712 67.1786 0 65.1051 0 62.8615ZM3.91557 26.0367V42.9232L18.5206 51.3461V34.4558L3.91557 26.0367ZM74.0833 26.0367L59.4783 34.4559V51.3462L74.0833 42.9233V26.0367ZM57.4339 31.1198L72.1275 22.6491L57.6036 14.2778L42.9138 22.7485L57.4339 31.1198ZM53.6914 12.0233L40.1548 4.21839C39.4402 3.80644 38.5598 3.80644 37.8452 4.21839L24.3086 12.0233L39.0023 20.4903L53.6914 12.0233ZM20.3954 14.278L5.87151 22.6493L20.5652 31.12L35.0853 22.7487L20.3954 14.278ZM59.4775 72.6492L72.8963 64.9142C73.6293 64.4913 74.0824 63.7079 74.0824 62.8619V47.4395L59.4774 55.8587L59.4775 72.6492ZM22.436 74.9076L37.041 83.3267V66.5362L22.436 58.1171V74.9076ZM40.9573 83.3267L55.5623 74.9076V58.1171L40.9573 66.5362V83.3267ZM3.91576 47.4398V62.8621C3.91576 63.7081 4.36883 64.4916 5.10185 64.9145L18.5206 72.6495V55.859L3.91576 47.4398ZM22.437 36.7141V53.6006L37.042 62.0235V44.9863C36.6442 44.8539 36.2574 44.681 35.889 44.4677L22.437 36.7141ZM55.5632 53.6006V36.7141L42.1143 44.4675C41.7423 44.6809 41.3555 44.8538 40.9576 44.9862V62.0233L55.5632 53.6006ZM24.4814 33.3752L37.8454 41.0808C38.56 41.4928 39.4404 41.4928 40.155 41.0808L53.519 33.3752L39.0017 25.0075L24.4814 33.3752Z" fill="black"/>
</svg>
